<svg id="Layer_1" enable-background="new 0 0 497 497" height="512" viewBox="0 0 497 497" 
width="512" xmlns="http://www.w3.org/2000/svg">
<g><path d="m360.413 15.942c-2.199-3.864-6.566-4.291-10.261-2.691-13.04 5.648-24.949 14.104-34.464 
24.681-4.061 4.513-7.792 9.463-10.602 14.842-5.695 2.635-11.09 5.765-15.935 8.899-19.331 12.502-37.548 
30.603-44.04 53.274-2.662 9.297 11.807 13.266 14.464 3.988 4.328-15.116 15.408-27.46 27.343-37.229 
4.102-3.358 8.524-6.531 13.179-9.355.539 10.346 7.663 19.505 18.096 21.902 10.626 2.44 22.139-1.296 
30.325-8.209 8.152-6.884 11.569-18.014 
6.887-27.879-2.989-6.298-9.058-10.371-15.831-11.61-3.593-.657-7.25-.782-10.915-.496 8.305-8.521 
18.113-15.111 29.064-19.854 3.745-1.624 4.52-7.047 2.69-10.263zm-21.614 
45.883c.035.012.056.019.087.03.091.05.217.115.41.209.451.22.876.505 
1.291.786-.741-.503.246.396.61.677.077.355 1.162 2.414.941 1.592.384 1.176.645 2.324.463 
3.512-1.638 10.711-25.952 17.554-27.541 3.771-.3-2.604.097-5.226.928-7.79 3.084-1.136 
6.22-2.085 9.393-2.788 4.776-1.06 9.404-1.386 13.418.001z" fill="#de5f00"/>
<g><path d="m210.966.028s68.371 15.818 55.52 121.688l-30.68-3.962s7.48-57.916-45.128-64.71" 
fill="#de5f00"/><g><ellipse cx="199.695" cy="26.315" fill="#de5f00" rx="28.331" ry="14.121" 
transform="matrix(.428 -.904 .904 .428 90.456 195.541)"/></g></g><path d="m377.697 
111.36c-19.03 0-37.014 6.868-52.976 19.063-21.49-23.618-47.8-37.518-76.22-37.518s-54.73 
13.9-76.22 37.518c-15.962-12.195-33.947-19.063-52.976-19.063-65.891 0-119.305 
82.197-119.305 183.592s53.414 183.593 119.303 183.593c19.03 0 37.014-6.868 52.976-19.063 
21.491 23.618 47.8 37.518 76.221 37.518s54.73-13.9 76.22-37.518c15.962 12.195 33.947 19.063 52.976 
19.063 65.889 0 119.303-82.197 119.303-183.593s-53.413-183.592-119.302-183.592z" 
fill="#de5f00"/><g fill="#de5f00"><path d="m155.167 148.5c2.351-2.584 14.65-15.732 
17.113-18.077 0 0-12.28-9.756-25.231-14.063-8.903-3.267-18.192-5-27.746-5-6.82 0-13.503.894-20.011 
2.585 11.656 3.03 36.041 12.055 55.875 34.555z"/><path d="m298.5 147.75c4.628-3.536 21.276-14.725 
26.22-17.327 0 0-9.47-10.423-14.769-14.063-18.334-14.972-39.249-23.455-61.451-23.455-6.801 
0-13.478.804-20 2.339 20.734 4.878 51.25 26.506 70 52.506z"/><path d="m301.667 443.333c-11.333 
17-52.433 46.45-73.167 51.328 6.522 1.534 13.199 2.339 20 2.339 22.202 0 43.117-8.483 61.451-23.455 
6.715-5.212 14.769-14.063 14.769-14.063-5.31-2.711-18.103-12.366-23.053-16.149z"/><path d="m154.333 
440.667c-16.583 14.833-43.385 32.263-55.041 35.293 6.507 1.691 13.191 2.585 20.011 2.585 9.553 0 
18.843-1.733 27.746-5 13.035-4.378 25.231-14.063 25.231-14.063-2.367-2.266-15.684-16.329-17.947-18.815z"/>
<path d="m377.697 111.36c-6.813 0-13.489.895-19.989 2.585 56.36 14.649 99.292 90.107 99.292 
181.007s-42.932 166.358-99.292 181.008c6.5 1.69 13.176 2.585 19.989 2.585 65.889 0 119.303-82.197 
119.303-183.593s-53.414-183.592-119.303-183.592z"/></g><g><g fill="#ef8610"><path d="m219.91 
255.702c-16.303 24.959-49.753 31.977-74.712 15.674s-31.977-49.753-15.674-74.712z"/><path d="m129.524 
196.664c-4.26 6.521-6.913 13.624-8.084 20.847l58.47 38.192c-6.323 9.68-15.229 16.646-25.214 20.615 
23.392 9.37 50.906 1.29 65.214-20.615z"/><path d="m277.09 255.702c16.303 24.959 49.753 31.977 74.712 
15.674s31.977-49.753 15.673-74.712z"/><path d="m367.476 196.664-31.916 20.847c3.312 20.422-5.32 
41.822-23.758 53.865-3.054 1.995-6.237 3.635-9.498 4.942 15.762 6.265 34.218 5.039 49.498-4.942 
24.959-16.303 31.977-49.753 15.674-74.712z"/></g><g><path d="m416.016 314.304h-57.759v13.106c0 
6.002-4.865 10.867-10.867 10.867h-26.08c-6.002 0-10.867-4.865-10.867-10.867v-13.106h-128.232v13.106c0 
6.002-4.865 10.867-10.867 10.867h-26.081c-6.002 0-10.867-4.865-10.867-10.867v-13.106h-53.412c22.582 
62.133 109.431 93.666 169.69 93.026v-19.064c0-6.002 4.865-10.867 10.867-10.867h26.081c6.002 0 10.867 
4.865 10.867 10.867v13.052c54.597-13.195 101.045-46.703 117.527-87.014z" fill="#ef8610"/></g></g></g></svg>