<?xml version="1.0" encoding="iso-8859-1"?>
<!-- Generator: Adobe Illustrator 19.0.0, SVG Export Plug-In . SVG Version: 6.00 Build 0)  -->
<svg version="1.1" id="Layer_1" xmlns="http://www.w3.org/2000/svg" xmlns:xlink="http://www.w3.org/1999/xlink" x="0px" y="0px"
	 viewBox="0 0 450.002 450.002" style="enable-background:new 0 0 450.002 450.002;" xml:space="preserve">
<path style="fill:#de5f00;" d="M411.972,204.367c0-118.248-83.808-204.777-186.943-204.365C121.896-0.41,38.001,86.119,38.001,204.367L38.373,441
	l62.386-29.716l62.382,38.717l62.212-38.716l62.215,38.718l62.213-38.714l62.221,29.722L411.972,204.367z M143.727,258.801
	c-27.585-6.457-44.713-34.053-38.256-61.638l99.894,23.383C198.908,248.13,171.312,265.258,143.727,258.801z M306.276,258.801
	c-27.585,6.457-55.181-10.671-61.638-38.256l99.894-23.383C350.988,224.748,333.861,252.344,306.276,258.801z"/>
<g>
</g>
<g>
</g>
<g>
</g>
<g>
</g>
<g>
</g>
<g>
</g>
<g>
</g>
<g>
</g>
<g>
</g>
<g>
</g>
<g>
</g>
<g>
</g>
<g>
</g>
<g>
</g>
<g>
</g>
</svg>
