<?xml version="1.0" encoding="iso-8859-1"?>
<!-- Generator: Adobe Illustrator 18.1.1, SVG Export Plug-In . SVG Version: 6.00 Build 0)  -->
<svg version="1.1" id="Capa_1" xmlns="http://www.w3.org/2000/svg" xmlns:xlink="http://www.w3.org/1999/xlink" x="0px" y="0px"
	 viewBox="0 0 279.996 279.996" style="enable-background:new 0 0 279.996 279.996;" xml:space="preserve">
<g>
	<path style="fill:#de5f00;" d="M205.745,117.638l1.464-4.05c-3.959,3.584-8.69,6.569-14.184,8.948
		c-4.049,1.765-9.29,3.468-15.718,5.093c-5.449,1.398-10.873,2.77-16.278,4.125c-2.003-3.21-4.327-7.801-6.984-13.763l3.216-6.566
		l-6.779,3.776l-9.92-2.731l-9.918,2.731l-6.78-3.776l3.215,6.566c-2.886,6.479-5.217,11.06-6.986,13.763
		c-5.588-1.211-11.177-2.397-16.765-3.564c-6.477-1.54-11.927-3.282-16.347-5.238c-5.59-2.466-10.339-5.588-14.252-9.363
		l1.534,4.615C48.692,129.704,23.938,137.248,0,140.835c9.691,0.793,17.371,2.329,23.056,4.609
		c7.962,3.119,13.765,8.084,17.394,14.877c2.189-3.957,6.034-7.049,11.531-9.281c4.695-1.87,9.663-2.799,14.875-2.799
		c4.751,0,9.201,0.748,13.345,2.234c4.845,1.725,8.456,4.264,10.828,7.614c3.492-6.192,7.985-9.29,13.482-9.29l15.438,9.084
		c3.307,7.705,10.646,10.688,22.779,10.688c9.149,0,12.541-2.528,18.439-10.272c0.424-2.746,2.238-5.075,5.447-6.987
		c2.89-1.676,5.848-2.512,8.877-2.512c2.838,0,5.564,0.935,8.174,2.797c2.277,1.627,4.234,3.795,5.863,6.493
		c2.008-3.351,5.502-5.917,10.484-7.683c4.054-1.443,8.428-2.166,13.132-2.166c9.269,0,18.445,4.027,27.524,12.081
		c3.12-6.935,8.64-11.987,16.555-15.155c5.641-2.235,13.229-3.679,22.773-4.332C252.896,137.016,228.144,129.284,205.745,117.638z
		 M137.42,126.867c-0.19,0.743-0.398,1.251-0.627,1.535c-1.167-0.05-2.167-0.792-3.011-2.237c-0.555-1.258-1.116-2.495-1.672-3.705
		c1.814,1.211,3.796,2.167,5.936,2.866C137.814,125.602,137.605,126.119,137.42,126.867z M148.177,126.165
		c-0.936,1.258-2.076,1.979-3.422,2.167c0.041-1.076-0.16-1.863-0.629-2.376c0.604-0.557,1.559-1.214,2.865-1.955
		c0.229-0.142,1.258-0.652,3.071-1.541C149.226,124.372,148.597,125.602,148.177,126.165z"/>
</g>
<g>
</g>
<g>
</g>
<g>
</g>
<g>
</g>
<g>
</g>
<g>
</g>
<g>
</g>
<g>
</g>
<g>
</g>
<g>
</g>
<g>
</g>
<g>
</g>
<g>
</g>
<g>
</g>
<g>
</g>
</svg>
