<svg id="filled_outline" height="512" viewBox="0 0 512 512" width="512" xmlns="http://www.w3.org/2000/svg" data-name="filled outline"><path d="m400 240v224a24.00619 24.00619 0 0 1 -24 24h-240a24.00619 24.00619 0 0 1 -24-24v-224a55.99276 55.99276 0 0 1 56-56 24.00619 24.00619 0 0 0 24-24v-80h128v80a24.00243 24.00243 0 0 0 24 24 55.9973 55.9973 0 0 1 56 56z" fill="#ffece3"/><path d="m400 248v216a24.00619 24.00619 0 0 1 -24 24h-240a24.00619 24.00619 0 0 1 -24-24v-216l22.2 11.1001a49.68956 49.68956 0 0 0 49.8-3.1001 43.24976 43.24976 0 0 1 48 0 43.24976 43.24976 0 0 0 48 0 43.24976 43.24976 0 0 1 48 0 49.70716 49.70716 0 0 0 49.7998 3.1001z" fill="#97cd2a"/><path d="m216 24h80v96h-80z" fill="#c47220"/><path d="m292.28424 430.22542 16.97061-16.9706a63.99994 63.99994 0 0 0 0-90.50958l-.00009-.00009a63.99994 63.99994 0 0 0 -90.50958 0l-16.9706 16.97061 5.65685 28.28424-16.97056 16.97056 56.56854 56.56854 16.97059-16.97053z" fill="#bbeb5e"/><rect fill="#ffd9c7" height="32" rx="16" width="160" x="176" y="56"/><circle cx="152" cy="352" fill="#bbeb5e" r="16"/><path d="m213.08789 317.08789-16.9707 16.9707a8.00382 8.00382 0 0 0 -2.1875 7.22657l4.81738 24.08593-13.94336 13.94239a8.00121 8.00121 0 0 0 0 11.31445l56.56836 56.56836a8.0018 8.0018 0 0 0 11.31445 0l13.94239-13.94336 24.08593 4.81738a7.99987 7.99987 0 0 0 7.22657-2.1875l16.9707-16.9707a72.0006 72.0006 0 1 0 -101.82422-101.82422zm90.50977 90.50977-13.94239 13.94334-24.08593-4.81739a8.00488 8.00488 0 0 0 -7.22657 2.1875l-11.31347 11.31448-45.25489-45.25489 11.31446-11.31347a8.00388 8.00388 0 0 0 2.1875-7.22657l-4.81737-24.08593 13.94336-13.94239a55.99955 55.99955 0 0 1 79.19532 79.19532z"/><path d="m247.0293 376.9707h-11.31348a8.00066 8.00066 0 0 0 -5.65723 13.65723l11.31348 11.31348a8.00066 8.00066 0 0 0 13.65723-5.65723v-11.31348a8.00039 8.00039 0 0 0 -8-8z"/><path d="m247.0293 335.0293a16.00048 16.00048 0 1 0 11.31543 4.6875 15.89664 15.89664 0 0 0 -11.31543-4.6875z"/><path d="m269.65625 373.65625a16.00049 16.00049 0 1 0 22.62793 0 16.02193 16.02193 0 0 0 -22.62793 0z"/><path d="m344 176a16.01833 16.01833 0 0 1 -16-16v-65.37622a23.99787 23.99787 0 0 0 -8-46.62378h-16v-24a8.00039 8.00039 0 0 0 -8-8h-80a8.00039 8.00039 0 0 0 -8 8v24h-16a23.99787 23.99787 0 0 0 -8 46.62378v65.37622a16.01833 16.01833 0 0 1 -16 16 64.07207 64.07207 0 0 0 -64 64v224a32.03667 32.03667 0 0 0 32 32h240a32.03667 32.03667 0 0 0 32-32v-224a64.07207 64.07207 0 0 0 -64-64zm-120-144h64v16h-64zm-32 32h128a8 8 0 0 1 0 16h-128a8 8 0 0 1 0-16zm32 32h64v16h-64zm-56 96a32.03667 32.03667 0 0 0 32-32v-64h8v24a8.00039 8.00039 0 0 0 8 8h80a8.00039 8.00039 0 0 0 8-8v-24h8v64a31.79447 31.79447 0 0 0 4.30518 16h-44.30518v16h72a48.05375 48.05375 0 0 1 48 48v3.05566l-17.7793 8.88965a41.79592 41.79592 0 0 1 -41.7832-2.60156 51.1282 51.1282 0 0 0 -56.875 0 35.17618 35.17618 0 0 1 -39.125 0 51.1282 51.1282 0 0 0 -56.875 0 41.798 41.798 0 0 1 -41.7832 2.60156l-17.7793-8.88965v-3.05566a48.05375 48.05375 0 0 1 48-48zm208 288h-240a16.01833 16.01833 0 0 1 -16-16v-203.05566l10.62305 5.31152a57.829 57.829 0 0 0 57.81445-3.59961 35.17618 35.17618 0 0 1 39.125 0 51.1282 51.1282 0 0 0 56.875 0 35.17618 35.17618 0 0 1 39.125 0 57.82543 57.82543 0 0 0 57.81445 3.59961l10.62305-5.31152v203.05566a16.01833 16.01833 0 0 1 -16 16z"/><path d="m152 328a24 24 0 1 0 24 24 24.0275 24.0275 0 0 0 -24-24zm0 32a8 8 0 1 1 8-8 8.00917 8.00917 0 0 1 -8 8z"/><path d="m144 408h24v16h-24z"/><path d="m168 288h16v16h-16z"/><path d="m336 296h32v16h-32z"/><path d="m360 360h16v16h-16z"/><path d="m336 424h32v16h-32z"/><path d="m280 448h16v16h-16z"/><path d="m240 176h16v16h-16z"/></svg>