<svg id="Capa_1" enable-background="new 0 0 512 512" height="512" viewBox="0 0 512 512" 
width="512" xmlns="http://www.w3.org/2000/svg"><g><path d="m370.921 330.948h-134.921l20 
181.052c141.385 0 256-42.802 256-95.602 0-37.366-57.406-69.726-141.079-85.45z" fill="#de5f00"/>
<path d="m141.079 330.948c-83.673 15.724-141.079 48.084-141.079 85.45 0 52.8 114.615 95.602 256 
95.602v-181.052z" fill="#de5f00"/><path d="m376.269 365.89s-90.97-7.292-140.269-7.292l20 
73.734c54.678 0 97.509-6.87 128.129-15.089z" fill="#de5f00"/>
<path d="m135.731 365.89-7.86 51.353c30.62 8.219 73.451 15.089 128.129 15.089v-73.734c-49.299 
0-120.269 7.292-120.269 7.292z" fill="#de5f00"/><path d="m464.1 38.396-56.2-38.396h-87.635l-64.265 
58.947-20 212.303 20 107.347c49.299 0 88.968-5.585 118.739-12.708h1.531l-21.693-141.725 23.511-124.328z" 
fill="#de5f00"/>
<path d="m170.742 137.149-35.011 228.741h1.531c29.771 7.123 69.439 12.708 118.739 12.708v-319.651z" 
fill="#de5f00"/></g></svg>